<svg width="181" height="181" viewBox="0 0 181 181" fill="none" xmlns="http://www.w3.org/2000/svg">
<path d="M181 90.5C181 110.654 174.41 129.271 163.269 144.312C159.173 149.842 154.459 154.892 149.233 159.354C133.427 172.851 112.918 181 90.5 181C77.5161 181 65.1749 178.267 54.0154 173.342C49.1949 171.219 44.596 168.685 40.263 165.785C37.3005 163.809 34.4674 161.658 31.7669 159.354C26.5402 154.891 21.8268 149.842 17.7302 144.312C6.58988 129.271 0 110.654 0 90.5C0 70.3461 6.58988 51.7292 17.7306 36.6875C24.7489 27.2126 33.5737 19.1563 43.6949 13.0281C57.3512 4.75761 73.3679 0 90.5 0C90.6181 0 90.7365 0 90.8546 0.00353516C107.854 0.0664609 123.745 4.81312 137.305 13.0281C147.426 19.1563 156.251 27.2126 163.269 36.6875C174.41 51.7289 181 70.3461 181 90.5Z" fill="#EF487D"/>
</svg>
