<svg width="91" height="79" viewBox="0 0 91 79" fill="none" xmlns="http://www.w3.org/2000/svg">
<path d="M9.87891 13H8.18262V7.08496H1.73145V13H0.0439453V0.203125H1.73145V5.70508H8.18262V0.203125H9.87891V13ZM18.4922 13C18.3984 12.8125 18.3223 12.4785 18.2637 11.998C17.5078 12.7832 16.6055 13.1758 15.5566 13.1758C14.6191 13.1758 13.8486 12.9121 13.2451 12.3848C12.6475 11.8516 12.3486 11.1777 12.3486 10.3633C12.3486 9.37305 12.7236 8.60547 13.4736 8.06055C14.2295 7.50977 15.29 7.23438 16.6553 7.23438H18.2373V6.4873C18.2373 5.91895 18.0674 5.46777 17.7275 5.13379C17.3877 4.79395 16.8867 4.62402 16.2246 4.62402C15.6445 4.62402 15.1582 4.77051 14.7656 5.06348C14.373 5.35645 14.1768 5.71094 14.1768 6.12695H12.542C12.542 5.65234 12.709 5.19531 13.043 4.75586C13.3828 4.31055 13.8398 3.95898 14.4141 3.70117C14.9941 3.44336 15.6299 3.31445 16.3213 3.31445C17.417 3.31445 18.2754 3.58984 18.8965 4.14062C19.5176 4.68555 19.8398 5.43848 19.8633 6.39941V10.7764C19.8633 11.6494 19.9746 12.3438 20.1973 12.8594V13H18.4922ZM15.7939 11.7607C16.3037 11.7607 16.7871 11.6289 17.2441 11.3652C17.7012 11.1016 18.0322 10.7588 18.2373 10.3369V8.38574H16.9629C14.9707 8.38574 13.9746 8.96875 13.9746 10.1348C13.9746 10.6445 14.1445 11.043 14.4844 11.3301C14.8242 11.6172 15.2607 11.7607 15.7939 11.7607ZM26.7979 11.6729L27.3604 10.9785C27.9932 10.1582 28.3535 8.92773 28.4414 7.28711L28.5908 3.49023H34.7168V11.6729H35.9385V15.7949H34.3125V13H27.6768V15.7949H26.0508L26.0596 11.6729H26.7979ZM28.7227 11.6729H33.0908V4.99316H30.1641L30.0674 7.26074C29.9678 9.15332 29.5195 10.624 28.7227 11.6729ZM43.6113 13C43.5176 12.8125 43.4414 12.4785 43.3828 11.998C42.627 12.7832 41.7246 13.1758 40.6758 13.1758C39.7383 13.1758 38.9678 12.9121 38.3643 12.3848C37.7666 11.8516 37.4678 11.1777 37.4678 10.3633C37.4678 9.37305 37.8428 8.60547 38.5928 8.06055C39.3486 7.50977 40.4092 7.23438 41.7744 7.23438H43.3564V6.4873C43.3564 5.91895 43.1865 5.46777 42.8467 5.13379C42.5068 4.79395 42.0059 4.62402 41.3438 4.62402C40.7637 4.62402 40.2773 4.77051 39.8848 5.06348C39.4922 5.35645 39.2959 5.71094 39.2959 6.12695H37.6611C37.6611 5.65234 37.8281 5.19531 38.1621 4.75586C38.502 4.31055 38.959 3.95898 39.5332 3.70117C40.1133 3.44336 40.749 3.31445 41.4404 3.31445C42.5361 3.31445 43.3945 3.58984 44.0156 4.14062C44.6367 4.68555 44.959 5.43848 44.9824 6.39941V10.7764C44.9824 11.6494 45.0938 12.3438 45.3164 12.8594V13H43.6113ZM40.9131 11.7607C41.4229 11.7607 41.9062 11.6289 42.3633 11.3652C42.8203 11.1016 43.1514 10.7588 43.3564 10.3369V8.38574H42.082C40.0898 8.38574 39.0938 8.96875 39.0938 10.1348C39.0938 10.6445 39.2637 11.043 39.6035 11.3301C39.9434 11.6172 40.3799 11.7607 40.9131 11.7607ZM55.3008 13H53.6748V8.93945H49.3066V13H47.6719V3.49023H49.3066V7.6123H53.6748V3.49023H55.3008V13ZM65.6895 13H64.0635V8.93945H59.6953V13H58.0605V3.49023H59.6953V7.6123H64.0635V3.49023H65.6895V13ZM70.084 6.76855H72.5537C73.6318 6.78027 74.4844 7.06152 75.1113 7.6123C75.7383 8.16309 76.0518 8.91016 76.0518 9.85352C76.0518 10.8027 75.7295 11.5645 75.085 12.1387C74.4404 12.7129 73.5732 13 72.4834 13H68.458V3.49023H70.084V6.76855ZM79.4443 13H77.8096V3.49023H79.4443V13ZM70.084 8.0957V11.6729H72.501C73.1104 11.6729 73.582 11.5176 73.916 11.207C74.25 10.8906 74.417 10.46 74.417 9.91504C74.417 9.3877 74.2529 8.95703 73.9248 8.62305C73.6025 8.2832 73.1484 8.10742 72.5625 8.0957H70.084ZM88.4355 3.49023H90.0615V13H88.4355V6.06543L84.0498 13H82.4238V3.49023H84.0498V10.4336L88.4355 3.49023ZM88.875 0.0273438C88.875 0.736328 88.6318 1.30762 88.1455 1.74121C87.665 2.16895 87.0322 2.38281 86.2471 2.38281C85.4619 2.38281 84.8262 2.16602 84.3398 1.73242C83.8535 1.29883 83.6104 0.730469 83.6104 0.0273438H84.9375C84.9375 0.4375 85.0488 0.759766 85.2715 0.994141C85.4941 1.22266 85.8193 1.33691 86.2471 1.33691C86.6572 1.33691 86.9766 1.22266 87.2051 0.994141C87.4395 0.765625 87.5566 0.443359 87.5566 0.0273438H88.875ZM11.5488 31.8467L14.7832 24.4902H16.8135V34H15.1875V27.083L12.1113 34H10.9863L7.84863 26.9336V34H6.22266V24.4902H8.33203L11.5488 31.8467ZM19.002 29.1572C19.002 28.2256 19.1836 27.3877 19.5469 26.6436C19.916 25.8994 20.4258 25.3252 21.0762 24.9209C21.7324 24.5166 22.4795 24.3145 23.3174 24.3145C24.6123 24.3145 25.6582 24.7627 26.4551 25.6592C27.2578 26.5557 27.6592 27.748 27.6592 29.2363V29.3506C27.6592 30.2764 27.4805 31.1084 27.123 31.8467C26.7715 32.5791 26.2646 33.1504 25.6025 33.5605C24.9463 33.9707 24.1904 34.1758 23.335 34.1758C22.0459 34.1758 21 33.7275 20.1973 32.8311C19.4004 31.9346 19.002 30.748 19.002 29.2715V29.1572ZM20.6367 29.3506C20.6367 30.4053 20.8799 31.252 21.3662 31.8906C21.8584 32.5293 22.5146 32.8486 23.335 32.8486C24.1611 32.8486 24.8174 32.5264 25.3037 31.8818C25.79 31.2314 26.0332 30.3232 26.0332 29.1572C26.0332 28.1143 25.7842 27.2705 25.2861 26.626C24.7939 25.9756 24.1377 25.6504 23.3174 25.6504C22.5146 25.6504 21.8672 25.9697 21.375 26.6084C20.8828 27.2471 20.6367 28.1611 20.6367 29.3506ZM35.1738 31.8467L38.4082 24.4902H40.4385V34H38.8125V27.083L35.7363 34H34.6113L31.4736 26.9336V34H29.8477V24.4902H31.957L35.1738 31.8467ZM47.0039 34.1758C45.7148 34.1758 44.666 33.7539 43.8574 32.9102C43.0488 32.0605 42.6445 30.9268 42.6445 29.5088V29.21C42.6445 28.2666 42.8232 27.4258 43.1807 26.6875C43.5439 25.9434 44.0479 25.3633 44.6924 24.9473C45.3428 24.5254 46.0459 24.3145 46.8018 24.3145C48.0381 24.3145 48.999 24.7217 49.6846 25.5361C50.3701 26.3506 50.7129 27.5166 50.7129 29.0342V29.7109H44.2705C44.2939 30.6484 44.5664 31.4072 45.0879 31.9873C45.6152 32.5615 46.2832 32.8486 47.0918 32.8486C47.666 32.8486 48.1523 32.7314 48.5508 32.4971C48.9492 32.2627 49.2979 31.9521 49.5967 31.5654L50.5898 32.3389C49.793 33.5635 48.5977 34.1758 47.0039 34.1758ZM46.8018 25.6504C46.1455 25.6504 45.5947 25.8906 45.1494 26.3711C44.7041 26.8457 44.4287 27.5137 44.3232 28.375H49.0869V28.252C49.04 27.4258 48.8174 26.7871 48.4189 26.3359C48.0205 25.8789 47.4814 25.6504 46.8018 25.6504ZM60.3721 34H58.7461V29.9395H54.3779V34H52.7432V24.4902H54.3779V28.6123H58.7461V24.4902H60.3721V34ZM70.0576 25.8086H66.8672V34H65.2412V25.8086H62.1123V24.4902H70.0576V25.8086ZM76.2539 34V24.4902H79.9629C81.2285 24.4902 82.1982 24.7129 82.8721 25.1582C83.5518 25.5977 83.8916 26.2451 83.8916 27.1006C83.8916 27.54 83.7598 27.9385 83.4961 28.2959C83.2324 28.6475 82.8428 28.917 82.3271 29.1045C82.9014 29.2393 83.3613 29.5029 83.707 29.8955C84.0586 30.2881 84.2344 30.7568 84.2344 31.3018C84.2344 32.1748 83.9121 32.8428 83.2676 33.3057C82.6289 33.7686 81.7236 34 80.5518 34H76.2539ZM77.8799 29.8252V32.6904H80.5693C81.249 32.6904 81.7559 32.5645 82.0898 32.3125C82.4297 32.0605 82.5996 31.7061 82.5996 31.249C82.5996 30.2998 81.9023 29.8252 80.5078 29.8252H77.8799ZM77.8799 28.5244H79.9805C81.5039 28.5244 82.2656 28.0791 82.2656 27.1885C82.2656 26.2979 81.5449 25.8379 80.1035 25.8086H77.8799V28.5244ZM4.63184 46.6504C4.05176 46.6504 3.54785 46.835 3.12012 47.2041C2.69824 47.5732 2.4873 48.0098 2.4873 48.5137H0.94043C0.94043 47.9688 1.11328 47.4473 1.45898 46.9492C1.80469 46.4512 2.26465 46.0557 2.83887 45.7627C3.41309 45.4639 4.01074 45.3145 4.63184 45.3145C5.86816 45.3145 6.86719 45.7627 7.62891 46.6592C8.39648 47.5498 8.78027 48.7158 8.78027 50.1572V50.4297C8.78027 51.3203 8.60449 52.1348 8.25293 52.873C7.90723 53.6055 7.41797 54.1738 6.78516 54.5781C6.1582 54.9766 5.44043 55.1758 4.63184 55.1758C3.57715 55.1758 2.69824 54.8477 1.99512 54.1914C1.29199 53.5352 0.94043 52.7178 0.94043 51.7393H2.4873C2.4873 52.3369 2.69531 52.8408 3.11133 53.251C3.52734 53.6553 4.03418 53.8574 4.63184 53.8574C5.3291 53.8574 5.90332 53.5879 6.35449 53.0488C6.80566 52.5098 7.06641 51.7686 7.13672 50.8252H3.56836V49.4893H7.11914C7.03711 48.6338 6.77637 47.9482 6.33691 47.4326C5.89746 46.9111 5.3291 46.6504 4.63184 46.6504ZM17.3408 46.8086H14.1504V55H12.5244V46.8086H9.39551V45.4902H17.3408V46.8086ZM18.123 50.1572C18.123 49.2256 18.3047 48.3877 18.668 47.6436C19.0371 46.8994 19.5469 46.3252 20.1973 45.9209C20.8535 45.5166 21.6006 45.3145 22.4385 45.3145C23.7334 45.3145 24.7793 45.7627 25.5762 46.6592C26.3789 47.5557 26.7803 48.748 26.7803 50.2363V50.3506C26.7803 51.2764 26.6016 52.1084 26.2441 52.8467C25.8926 53.5791 25.3857 54.1504 24.7236 54.5605C24.0674 54.9707 23.3115 55.1758 22.4561 55.1758C21.167 55.1758 20.1211 54.7275 19.3184 53.8311C18.5215 52.9346 18.123 51.748 18.123 50.2715V50.1572ZM19.7578 50.3506C19.7578 51.4053 20.001 52.252 20.4873 52.8906C20.9795 53.5293 21.6357 53.8486 22.4561 53.8486C23.2822 53.8486 23.9385 53.5264 24.4248 52.8818C24.9111 52.2314 25.1543 51.3232 25.1543 50.1572C25.1543 49.1143 24.9053 48.2705 24.4072 47.626C23.915 46.9756 23.2588 46.6504 22.4385 46.6504C21.6357 46.6504 20.9883 46.9697 20.4961 47.6084C20.0039 48.2471 19.7578 49.1611 19.7578 50.3506ZM34.9717 45.4902H36.5977V55H34.9717V48.0654L30.5859 55H28.96V45.4902H30.5859V52.4336L34.9717 45.4902ZM35.4111 42.0273C35.4111 42.7363 35.168 43.3076 34.6816 43.7412C34.2012 44.1689 33.5684 44.3828 32.7832 44.3828C31.998 44.3828 31.3623 44.166 30.876 43.7324C30.3896 43.2988 30.1465 42.7305 30.1465 42.0273H31.4736C31.4736 42.4375 31.585 42.7598 31.8076 42.9941C32.0303 43.2227 32.3555 43.3369 32.7832 43.3369C33.1934 43.3369 33.5127 43.2227 33.7412 42.9941C33.9756 42.7656 34.0928 42.4434 34.0928 42.0273H35.4111ZM43.8223 55V45.4902H47.5312C48.7969 45.4902 49.7666 45.7129 50.4404 46.1582C51.1201 46.5977 51.46 47.2451 51.46 48.1006C51.46 48.54 51.3281 48.9385 51.0645 49.2959C50.8008 49.6475 50.4111 49.917 49.8955 50.1045C50.4697 50.2393 50.9297 50.5029 51.2754 50.8955C51.627 51.2881 51.8027 51.7568 51.8027 52.3018C51.8027 53.1748 51.4805 53.8428 50.8359 54.3057C50.1973 54.7686 49.292 55 48.1201 55H43.8223ZM45.4482 50.8252V53.6904H48.1377C48.8174 53.6904 49.3242 53.5645 49.6582 53.3125C49.998 53.0605 50.168 52.7061 50.168 52.249C50.168 51.2998 49.4707 50.8252 48.0762 50.8252H45.4482ZM45.4482 49.5244H47.5488C49.0723 49.5244 49.834 49.0791 49.834 48.1885C49.834 47.2979 49.1133 46.8379 47.6719 46.8086H45.4482V49.5244ZM57.9023 55.1758C56.6133 55.1758 55.5645 54.7539 54.7559 53.9102C53.9473 53.0605 53.543 51.9268 53.543 50.5088V50.21C53.543 49.2666 53.7217 48.4258 54.0791 47.6875C54.4424 46.9434 54.9463 46.3633 55.5908 45.9473C56.2412 45.5254 56.9443 45.3145 57.7002 45.3145C58.9365 45.3145 59.8975 45.7217 60.583 46.5361C61.2686 47.3506 61.6113 48.5166 61.6113 50.0342V50.7109H55.1689C55.1924 51.6484 55.4648 52.4072 55.9863 52.9873C56.5137 53.5615 57.1816 53.8486 57.9902 53.8486C58.5645 53.8486 59.0508 53.7314 59.4492 53.4971C59.8477 53.2627 60.1963 52.9521 60.4951 52.5654L61.4883 53.3389C60.6914 54.5635 59.4961 55.1758 57.9023 55.1758ZM57.7002 46.6504C57.0439 46.6504 56.4932 46.8906 56.0479 47.3711C55.6025 47.8457 55.3271 48.5137 55.2217 49.375H59.9854V49.252C59.9385 48.4258 59.7158 47.7871 59.3174 47.3359C58.9189 46.8789 58.3799 46.6504 57.7002 46.6504ZM70.4619 46.8086H67.2715V55H65.6455V46.8086H62.5166V45.4902H70.4619V46.8086ZM75.0059 50.9482H73.8193V55H72.1846V45.4902H73.8193V49.5156H74.8828L78.082 45.4902H80.0508L76.2891 50.0605L80.3672 55H78.3018L75.0059 50.9482ZM85.5703 55.1758C84.2812 55.1758 83.2324 54.7539 82.4238 53.9102C81.6152 53.0605 81.2109 51.9268 81.2109 50.5088V50.21C81.2109 49.2666 81.3896 48.4258 81.7471 47.6875C82.1104 46.9434 82.6143 46.3633 83.2588 45.9473C83.9092 45.5254 84.6123 45.3145 85.3682 45.3145C86.6045 45.3145 87.5654 45.7217 88.251 46.5361C88.9365 47.3506 89.2793 48.5166 89.2793 50.0342V50.7109H82.8369C82.8604 51.6484 83.1328 52.4072 83.6543 52.9873C84.1816 53.5615 84.8496 53.8486 85.6582 53.8486C86.2324 53.8486 86.7188 53.7314 87.1172 53.4971C87.5156 53.2627 87.8643 52.9521 88.1631 52.5654L89.1562 53.3389C88.3594 54.5635 87.1641 55.1758 85.5703 55.1758ZM85.3682 46.6504C84.7119 46.6504 84.1611 46.8906 83.7158 47.3711C83.2705 47.8457 82.9951 48.5137 82.8896 49.375H87.6533V49.252C87.6064 48.4258 87.3838 47.7871 86.9854 47.3359C86.5869 46.8789 86.0479 46.6504 85.3682 46.6504ZM12.8408 76H11.2148V71.9395H6.84668V76H5.21191V66.4902H6.84668V70.6123H11.2148V66.4902H12.8408V76ZM19.4062 76.1758C18.1172 76.1758 17.0684 75.7539 16.2598 74.9102C15.4512 74.0605 15.0469 72.9268 15.0469 71.5088V71.21C15.0469 70.2666 15.2256 69.4258 15.583 68.6875C15.9463 67.9434 16.4502 67.3633 17.0947 66.9473C17.7451 66.5254 18.4482 66.3145 19.2041 66.3145C20.4404 66.3145 21.4014 66.7217 22.0869 67.5361C22.7725 68.3506 23.1152 69.5166 23.1152 71.0342V71.7109H16.6729C16.6963 72.6484 16.9688 73.4072 17.4902 73.9873C18.0176 74.5615 18.6855 74.8486 19.4941 74.8486C20.0684 74.8486 20.5547 74.7314 20.9531 74.4971C21.3516 74.2627 21.7002 73.9521 21.999 73.5654L22.9922 74.3389C22.1953 75.5635 21 76.1758 19.4062 76.1758ZM19.2041 67.6504C18.5479 67.6504 17.9971 67.8906 17.5518 68.3711C17.1064 68.8457 16.8311 69.5137 16.7256 70.375H21.4893V70.252C21.4424 69.4258 21.2197 68.7871 20.8213 68.3359C20.4229 67.8789 19.8838 67.6504 19.2041 67.6504ZM31.9658 67.8086H28.7754V76H27.1494V67.8086H24.0205V66.4902H31.9658V67.8086ZM43.2422 69.0918C43.2422 68.6465 43.0723 68.2949 42.7324 68.0371C42.3926 67.7734 41.9268 67.6416 41.335 67.6416C40.7607 67.6416 40.2803 67.791 39.8936 68.0898C39.5127 68.3887 39.3223 68.7402 39.3223 69.1445H37.7051C37.7051 68.3184 38.0508 67.6416 38.7422 67.1143C39.4336 66.5869 40.2979 66.3232 41.335 66.3232C42.4482 66.3232 43.3154 66.5635 43.9365 67.0439C44.5576 67.5186 44.8682 68.1982 44.8682 69.083C44.8682 69.5107 44.7393 69.9033 44.4814 70.2607C44.2236 70.6182 43.8574 70.9023 43.3828 71.1133C44.4902 71.4883 45.0439 72.2266 45.0439 73.3281C45.0439 74.2012 44.707 74.8926 44.0332 75.4023C43.3594 75.9121 42.46 76.167 41.335 76.167C40.2393 76.167 39.334 75.9004 38.6191 75.3672C37.9102 74.8281 37.5557 74.1016 37.5557 73.1875H39.1729C39.1729 73.6504 39.3779 74.0488 39.7881 74.3828C40.2041 74.7109 40.7197 74.875 41.335 74.875C41.9561 74.875 42.457 74.7314 42.8379 74.4443C43.2188 74.1572 43.4092 73.7852 43.4092 73.3281C43.4092 72.7949 43.248 72.4141 42.9258 72.1855C42.6094 71.9512 42.1143 71.834 41.4404 71.834H39.8145V70.4629H41.5811C42.6885 70.4336 43.2422 69.9766 43.2422 69.0918ZM53.0244 76C52.9307 75.8125 52.8545 75.4785 52.7959 74.998C52.04 75.7832 51.1377 76.1758 50.0889 76.1758C49.1514 76.1758 48.3809 75.9121 47.7773 75.3848C47.1797 74.8516 46.8809 74.1777 46.8809 73.3633C46.8809 72.373 47.2559 71.6055 48.0059 71.0605C48.7617 70.5098 49.8223 70.2344 51.1875 70.2344H52.7695V69.4873C52.7695 68.9189 52.5996 68.4678 52.2598 68.1338C51.9199 67.7939 51.4189 67.624 50.7568 67.624C50.1768 67.624 49.6904 67.7705 49.2979 68.0635C48.9053 68.3564 48.709 68.7109 48.709 69.127H47.0742C47.0742 68.6523 47.2412 68.1953 47.5752 67.7559C47.915 67.3105 48.3721 66.959 48.9463 66.7012C49.5264 66.4434 50.1621 66.3145 50.8535 66.3145C51.9492 66.3145 52.8076 66.5898 53.4287 67.1406C54.0498 67.6855 54.3721 68.4385 54.3955 69.3994V73.7764C54.3955 74.6494 54.5068 75.3438 54.7295 75.8594V76H53.0244ZM50.3262 74.7607C50.8359 74.7607 51.3193 74.6289 51.7764 74.3652C52.2334 74.1016 52.5645 73.7588 52.7695 73.3369V71.3857H51.4951C49.5029 71.3857 48.5068 71.9688 48.5068 73.1348C48.5068 73.6445 48.6768 74.043 49.0166 74.3301C49.3564 74.6172 49.793 74.7607 50.3262 74.7607ZM56.8652 74.6729L57.4277 73.9785C58.0605 73.1582 58.4209 71.9277 58.5088 70.2871L58.6582 66.4902H64.7842V74.6729H66.0059V78.7949H64.3799V76H57.7441V78.7949H56.1182L56.127 74.6729H56.8652ZM58.79 74.6729H63.1582V67.9932H60.2314L60.1348 70.2607C60.0352 72.1533 59.5869 73.624 58.79 74.6729ZM73.6787 76C73.585 75.8125 73.5088 75.4785 73.4502 74.998C72.6943 75.7832 71.792 76.1758 70.7432 76.1758C69.8057 76.1758 69.0352 75.9121 68.4316 75.3848C67.834 74.8516 67.5352 74.1777 67.5352 73.3633C67.5352 72.373 67.9102 71.6055 68.6602 71.0605C69.416 70.5098 70.4766 70.2344 71.8418 70.2344H73.4238V69.4873C73.4238 68.9189 73.2539 68.4678 72.9141 68.1338C72.5742 67.7939 72.0732 67.624 71.4111 67.624C70.8311 67.624 70.3447 67.7705 69.9521 68.0635C69.5596 68.3564 69.3633 68.7109 69.3633 69.127H67.7285C67.7285 68.6523 67.8955 68.1953 68.2295 67.7559C68.5693 67.3105 69.0264 66.959 69.6006 66.7012C70.1807 66.4434 70.8164 66.3145 71.5078 66.3145C72.6035 66.3145 73.4619 66.5898 74.083 67.1406C74.7041 67.6855 75.0264 68.4385 75.0498 69.3994V73.7764C75.0498 74.6494 75.1611 75.3438 75.3838 75.8594V76H73.6787ZM70.9805 74.7607C71.4902 74.7607 71.9736 74.6289 72.4307 74.3652C72.8877 74.1016 73.2188 73.7588 73.4238 73.3369V71.3857H72.1494C70.1572 71.3857 69.1611 71.9688 69.1611 73.1348C69.1611 73.6445 69.3311 74.043 69.6709 74.3301C70.0107 74.6172 70.4473 74.7607 70.9805 74.7607ZM84.7793 76H83.1445V72.5547C82.4297 72.7422 81.6973 72.8359 80.9473 72.8359C79.7578 72.8359 78.8496 72.5312 78.2227 71.9219C77.6016 71.3125 77.2852 70.4453 77.2734 69.3203V66.4814H78.8994V69.373C78.9287 70.791 79.6113 71.5 80.9473 71.5C81.6973 71.5 82.4297 71.4062 83.1445 71.2188V66.4902H84.7793V76Z" fill="#545454"/>
</svg>
