<svg width="157" height="156" viewBox="0 0 157 156" fill="none" xmlns="http://www.w3.org/2000/svg">
<path d="M156.491 77.9908C156.491 95.3587 150.812 111.403 141.211 124.365C137.681 129.13 133.619 133.482 129.115 137.328C115.494 148.959 97.82 155.982 78.5007 155.982C67.3116 155.982 56.6761 153.626 47.059 149.383C42.9049 147.552 38.9416 145.368 35.2074 142.869C32.6547 141.167 30.2129 139.314 27.8858 137.327C23.3816 133.482 19.3197 129.13 15.7895 124.365C6.18873 111.402 0.509857 95.3584 0.509857 77.9905C0.509857 60.6226 6.18838 44.5787 15.7892 31.6163C21.8375 23.4512 29.4426 16.5085 38.1646 11.2273C49.9331 4.10007 63.7358 0 78.5 0C78.6018 0 78.704 0 78.8055 0.00318164C93.4551 0.0572695 107.15 4.1478 118.835 11.2273C127.558 16.5085 135.163 23.4512 141.211 31.6163C150.812 44.5787 156.491 60.623 156.491 77.9908Z" fill="#FF668C"/>
</svg>
